<svg xmlns="http://www.w3.org/2000/svg" xmlns:xlink="http://www.w3.org/1999/xlink" width="559" zoomAndPan="magnify" viewBox="0 0 419.25 297.749991" height="397" preserveAspectRatio="xMidYMid meet" version="1.0"><defs><clipPath id="8e402c2f29"><path d="M 0 53.714844 L 175.257812 53.714844 L 175.257812 229.457031 L 0 229.457031 Z M 0 53.714844 " clip-rule="nonzero"/></clipPath><clipPath id="7c6c598713"><path d="M 87.386719 53.714844 C 38.855469 53.714844 -0.488281 93.054688 -0.488281 141.585938 C -0.488281 190.113281 38.855469 229.457031 87.386719 229.457031 C 135.917969 229.457031 175.257812 190.113281 175.257812 141.585938 C 175.257812 93.054688 135.917969 53.714844 87.386719 53.714844 Z M 87.386719 53.714844 " clip-rule="nonzero"/></clipPath><clipPath id="a450a37309"><path d="M 148.082031 83.492188 L 221.640625 83.492188 L 221.640625 192.234375 L 148.082031 192.234375 Z M 148.082031 83.492188 " clip-rule="nonzero"/></clipPath><clipPath id="fa35b3a9c6"><path d="M 352.824219 191.851562 L 352.824219 125.121094 C 352.984375 123.042969 352.714844 121.023438 352.027344 119.058594 C 351.34375 117.09375 350.292969 115.339844 348.878906 113.808594 C 347.296875 112.34375 345.496094 111.238281 343.476562 110.496094 C 341.453125 109.757812 339.359375 109.441406 337.203125 109.542969 C 336.808594 109.53125 336.40625 109.550781 336.007812 109.585938 L 336.007812 176.339844 C 335.847656 178.414062 336.117188 180.425781 336.800781 182.386719 C 337.484375 184.351562 338.535156 186.097656 339.949219 187.621094 C 341.523438 189.078125 343.320312 190.183594 345.332031 190.921875 C 347.351562 191.660156 349.433594 191.984375 351.582031 191.886719 C 351.964844 191.886719 352.417969 191.886719 352.820312 191.851562 Z M 354.355469 93.378906 C 354.355469 92.726562 354.289062 92.085938 354.164062 91.445312 C 354.035156 90.808594 353.84375 90.1875 353.59375 89.589844 C 353.339844 88.992188 353.03125 88.417969 352.667969 87.878906 C 352.308594 87.335938 351.890625 86.835938 351.429688 86.378906 C 350.96875 85.921875 350.464844 85.511719 349.921875 85.152344 C 349.378906 84.792969 348.804688 84.488281 348.199219 84.238281 C 347.601562 83.992188 346.980469 83.804688 346.339844 83.683594 C 345.699219 83.554688 345.050781 83.492188 344.398438 83.492188 C 343.746094 83.492188 343.097656 83.558594 342.464844 83.6875 C 341.824219 83.816406 341.199219 84.007812 340.597656 84.257812 C 340 84.507812 339.425781 84.8125 338.882812 85.171875 C 338.339844 85.539062 337.839844 85.945312 337.382812 86.402344 C 336.917969 86.867188 336.507812 87.367188 336.148438 87.910156 C 335.78125 88.449219 335.476562 89.023438 335.234375 89.621094 C 334.984375 90.222656 334.792969 90.847656 334.664062 91.480469 C 334.539062 92.121094 334.476562 92.761719 334.476562 93.414062 C 334.476562 94.0625 334.542969 94.710938 334.671875 95.34375 C 334.800781 95.984375 334.984375 96.601562 335.234375 97.203125 C 335.484375 97.804688 335.792969 98.375 336.15625 98.917969 C 336.515625 99.457031 336.929688 99.957031 337.386719 100.421875 C 337.851562 100.878906 338.351562 101.289062 338.894531 101.648438 C 339.4375 102.011719 340.011719 102.320312 340.613281 102.5625 C 341.214844 102.8125 341.835938 103.003906 342.476562 103.128906 C 343.117188 103.257812 343.765625 103.320312 344.417969 103.320312 C 345.070312 103.320312 345.714844 103.257812 346.355469 103.128906 C 347 103.003906 347.621094 102.8125 348.226562 102.5625 C 348.835938 102.320312 349.410156 102.007812 349.953125 101.648438 C 350.496094 101.28125 350.996094 100.871094 351.457031 100.410156 C 351.921875 99.945312 352.332031 99.445312 352.699219 98.902344 C 353.058594 98.359375 353.363281 97.785156 353.613281 97.179688 C 353.863281 96.578125 354.046875 95.953125 354.175781 95.320312 C 354.300781 94.679688 354.363281 94.03125 354.355469 93.378906 Z M 303.960938 159.515625 L 303.960938 176.339844 C 303.804688 178.414062 304.070312 180.425781 304.757812 182.390625 C 305.449219 184.351562 306.496094 186.097656 307.917969 187.621094 C 309.492188 189.078125 311.292969 190.183594 313.3125 190.921875 C 315.339844 191.660156 317.421875 191.984375 319.574219 191.886719 C 319.964844 191.886719 320.40625 191.886719 320.800781 191.851562 L 320.800781 156 C 320.800781 140.566406 316.578125 130.1875 309.074219 122.109375 C 301.335938 113.808594 289.769531 109.011719 276.378906 109.011719 C 250.699219 109.011719 232.886719 127.769531 232.886719 152.203125 C 232.886719 176.210938 249.363281 192.234375 270.746094 192.234375 C 287.226562 192.234375 297.128906 182.460938 297.128906 171 C 297.09375 168.632812 296.710938 166.320312 295.976562 164.0625 C 295.25 161.808594 294.207031 159.710938 292.847656 157.769531 C 290.472656 170.089844 283.644531 176.871094 272.636719 176.871094 C 260.878906 176.871094 250.539062 167.984375 250.539062 151.785156 C 250.539062 135.855469 260.90625 124.964844 276.425781 124.964844 C 279.917969 124.871094 283.289062 125.464844 286.542969 126.734375 C 289.796875 128.007812 292.671875 129.863281 295.164062 132.300781 C 300.730469 137.785156 303.960938 146.199219 303.960938 159.507812 Z M 435.339844 169.808594 C 435.113281 169.789062 434.941406 169.6875 434.828125 169.492188 C 422.75 153.816406 400.585938 124.921875 395.777344 118.617188 C 390.695312 112.019531 386.710938 109.847656 381.457031 109.847656 C 379.738281 109.800781 378.070312 110.09375 376.472656 110.738281 C 374.875 111.386719 373.476562 112.328125 372.273438 113.558594 C 371 115.113281 370.046875 116.847656 369.417969 118.757812 C 368.796875 120.675781 368.539062 122.632812 368.648438 124.640625 L 368.648438 176.339844 C 368.488281 178.414062 368.753906 180.425781 369.4375 182.390625 C 370.125 184.351562 371.175781 186.097656 372.589844 187.621094 C 374.117188 189.066406 375.867188 190.167969 377.84375 190.90625 C 379.816406 191.648438 381.859375 191.972656 383.964844 191.886719 C 384.28125 191.894531 384.601562 191.882812 384.917969 191.851562 L 384.917969 132.589844 C 384.917969 132.164062 385.105469 131.925781 385.386719 131.925781 C 385.605469 131.925781 385.734375 132.019531 385.898438 132.269531 C 392.984375 141.445312 419.851562 176.492188 424.996094 183.082031 C 430.085938 189.671875 434.046875 191.886719 439.269531 191.886719 C 440.996094 191.949219 442.65625 191.65625 444.261719 191.015625 C 445.859375 190.375 447.269531 189.433594 448.472656 188.203125 C 449.746094 186.644531 450.707031 184.914062 451.328125 183.003906 C 451.957031 181.09375 452.21875 179.132812 452.109375 177.125 L 452.109375 125.421875 C 452.261719 123.339844 451.992188 121.320312 451.304688 119.351562 C 450.613281 117.386719 449.5625 115.628906 448.15625 114.097656 C 446.617188 112.648438 444.867188 111.558594 442.886719 110.820312 C 440.910156 110.085938 438.867188 109.761719 436.753906 109.847656 C 436.425781 109.847656 436.175781 109.847656 435.820312 109.878906 L 435.820312 169.175781 C 435.820312 169.601562 435.613281 169.816406 435.347656 169.816406 Z M 170.632812 176.003906 C 169.964844 176.003906 169.582031 175.777344 169.582031 175.335938 C 169.648438 174.976562 169.839844 174.695312 170.15625 174.507812 C 175.324219 170.335938 209.515625 142.832031 214.730469 138.554688 C 223.792969 131.28125 225.699219 127.722656 225.699219 122.546875 C 225.691406 120.96875 225.363281 119.460938 224.699219 118.027344 C 224.039062 116.589844 223.105469 115.359375 221.910156 114.320312 C 219.164062 112.003906 215.054688 110.746094 208.421875 110.746094 L 150.183594 110.746094 L 150.183594 111.671875 C 150.074219 114.695312 150.789062 117.507812 152.324219 120.113281 C 154.679688 123.476562 159.121094 125.421875 165.121094 125.421875 L 203.363281 125.421875 C 204.042969 125.421875 204.414062 125.621094 204.414062 125.972656 C 204.414062 126.265625 204.242188 126.464844 203.816406 126.78125 C 198.410156 131.15625 166.84375 156.554688 158.976562 162.820312 C 149.890625 170.097656 148.082031 173.726562 148.082031 178.878906 C 148.089844 180.453125 148.425781 181.953125 149.089844 183.386719 C 149.757812 184.816406 150.683594 186.042969 151.886719 187.066406 C 154.632812 189.402344 158.730469 190.679688 165.394531 190.679688 L 226.3125 190.679688 L 226.3125 190.097656 C 226.4375 188.183594 226.167969 186.320312 225.507812 184.515625 C 224.84375 182.710938 223.835938 181.117188 222.5 179.730469 C 219.527344 176.996094 215.679688 175.996094 208.464844 175.996094 Z M 170.632812 176.003906 " clip-rule="nonzero"/></clipPath><linearGradient x1="0.338146" gradientTransform="matrix(304.067072, 0, 0, 108.739282, 148.082628, 83.494016)" y1="1.107542" x2="0.64916" gradientUnits="userSpaceOnUse" y2="0.129496" id="4696956519"><stop stop-opacity="1" stop-color="rgb(66.27655%, 66.27655%, 66.27655%)" offset="0"/><stop stop-opacity="1" stop-color="rgb(66.08429%, 66.08429%, 66.08429%)" offset="0.015625"/><stop stop-opacity="1" stop-color="rgb(65.696716%, 65.696716%, 65.696716%)" offset="0.0195312"/><stop stop-opacity="1" stop-color="rgb(65.499878%, 65.499878%, 65.499878%)" offset="0.0234375"/><stop stop-opacity="1" stop-color="rgb(65.4953%, 65.4953%, 65.4953%)" offset="0.03125"/><stop stop-opacity="1" stop-color="rgb(65.29541%, 65.29541%, 65.29541%)" offset="0.0625"/><stop stop-opacity="1" stop-color="rgb(65.098572%, 65.098572%, 65.098572%)" offset="0.0714294"/><stop stop-opacity="1" stop-color="rgb(65.098572%, 65.098572%, 65.098572%)" offset="0.125"/><stop stop-opacity="1" stop-color="rgb(65.098572%, 65.098572%, 65.098572%)" offset="0.25"/><stop stop-opacity="1" stop-color="rgb(65.098572%, 65.098572%, 65.098572%)" offset="0.375"/><stop stop-opacity="1" stop-color="rgb(65.098572%, 65.098572%, 65.098572%)" offset="0.4375"/><stop stop-opacity="1" stop-color="rgb(65.202332%, 65.202332%, 65.202332%)" offset="0.445312"/><stop stop-opacity="1" stop-color="rgb(65.403748%, 65.403748%, 65.403748%)" offset="0.453125"/><stop stop-opacity="1" stop-color="rgb(65.50293%, 65.50293%, 65.50293%)" offset="0.46875"/><stop stop-opacity="1" stop-color="rgb(65.609741%, 65.609741%, 65.609741%)" offset="0.476562"/><stop stop-opacity="1" stop-color="rgb(65.80658%, 65.80658%, 65.80658%)" offset="0.484375"/><stop stop-opacity="1" stop-color="rgb(65.905762%, 65.905762%, 65.905762%)" offset="0.5"/><stop stop-opacity="1" stop-color="rgb(66.105652%, 66.105652%, 66.105652%)" offset="0.515625"/><stop stop-opacity="1" stop-color="rgb(66.308594%, 66.308594%, 66.308594%)" offset="0.53125"/><stop stop-opacity="1" stop-color="rgb(66.508484%, 66.508484%, 66.508484%)" offset="0.5625"/><stop stop-opacity="1" stop-color="rgb(66.802979%, 66.802979%, 66.802979%)" offset="0.570312"/><stop stop-opacity="1" stop-color="rgb(67.010498%, 67.010498%, 67.010498%)" offset="0.578125"/><stop stop-opacity="1" stop-color="rgb(67.306519%, 67.306519%, 67.306519%)" offset="0.59375"/><stop stop-opacity="1" stop-color="rgb(67.648315%, 67.648315%, 67.648315%)" offset="0.625"/><stop stop-opacity="1" stop-color="rgb(67.800903%, 67.800903%, 67.800903%)" offset="0.640625"/><stop stop-opacity="1" stop-color="rgb(67.906189%, 67.906189%, 67.906189%)" offset="0.648437"/><stop stop-opacity="1" stop-color="rgb(68.104553%, 68.104553%, 68.104553%)" offset="0.65625"/><stop stop-opacity="1" stop-color="rgb(68.203735%, 68.203735%, 68.203735%)" offset="0.671875"/><stop stop-opacity="1" stop-color="rgb(68.403625%, 68.403625%, 68.403625%)" offset="0.6875"/><stop stop-opacity="1" stop-color="rgb(68.606567%, 68.606567%, 68.606567%)" offset="0.703125"/><stop stop-opacity="1" stop-color="rgb(68.711853%, 68.711853%, 68.711853%)" offset="0.710938"/><stop stop-opacity="1" stop-color="rgb(68.907166%, 68.907166%, 68.907166%)" offset="0.71875"/><stop stop-opacity="1" stop-color="rgb(69.110107%, 69.110107%, 69.110107%)" offset="0.726563"/><stop stop-opacity="1" stop-color="rgb(69.30542%, 69.30542%, 69.30542%)" offset="0.734375"/><stop stop-opacity="1" stop-color="rgb(69.404602%, 69.404602%, 69.404602%)" offset="0.75"/><stop stop-opacity="1" stop-color="rgb(69.606018%, 69.606018%, 69.606018%)" offset="0.765625"/><stop stop-opacity="1" stop-color="rgb(69.80896%, 69.80896%, 69.80896%)" offset="0.78125"/><stop stop-opacity="1" stop-color="rgb(70.00885%, 70.00885%, 70.00885%)" offset="0.796875"/><stop stop-opacity="1" stop-color="rgb(70.204163%, 70.204163%, 70.204163%)" offset="0.804688"/><stop stop-opacity="1" stop-color="rgb(70.404053%, 70.404053%, 70.404053%)" offset="0.8125"/><stop stop-opacity="1" stop-color="rgb(70.819092%, 70.819092%, 70.819092%)" offset="0.816406"/><stop stop-opacity="1" stop-color="rgb(71.040344%, 71.040344%, 71.040344%)" offset="0.820313"/><stop stop-opacity="1" stop-color="rgb(71.218872%, 71.218872%, 71.218872%)" offset="0.828125"/><stop stop-opacity="1" stop-color="rgb(71.409607%, 71.409607%, 71.409607%)" offset="0.835938"/><stop stop-opacity="1" stop-color="rgb(71.617126%, 71.617126%, 71.617126%)" offset="0.84375"/><stop stop-opacity="1" stop-color="rgb(72.0047%, 72.0047%, 72.0047%)" offset="0.851563"/><stop stop-opacity="1" stop-color="rgb(72.215271%, 72.215271%, 72.215271%)" offset="0.859375"/><stop stop-opacity="1" stop-color="rgb(72.383118%, 72.383118%, 72.383118%)" offset="0.867188"/><stop stop-opacity="1" stop-color="rgb(72.729492%, 72.729492%, 72.729492%)" offset="0.875"/><stop stop-opacity="1" stop-color="rgb(73.11554%, 73.11554%, 73.11554%)" offset="0.890625"/><stop stop-opacity="1" stop-color="rgb(73.526001%, 73.526001%, 73.526001%)" offset="0.894531"/><stop stop-opacity="1" stop-color="rgb(73.747253%, 73.747253%, 73.747253%)" offset="0.898438"/><stop stop-opacity="1" stop-color="rgb(73.942566%, 73.942566%, 73.942566%)" offset="0.90625"/><stop stop-opacity="1" stop-color="rgb(74.331665%, 74.331665%, 74.331665%)" offset="0.921875"/><stop stop-opacity="1" stop-color="rgb(74.716187%, 74.716187%, 74.716187%)" offset="0.928571"/><stop stop-opacity="1" stop-color="rgb(74.908447%, 74.908447%, 74.908447%)" offset="0.929687"/><stop stop-opacity="1" stop-color="rgb(75.10376%, 75.10376%, 75.10376%)" offset="0.9375"/><stop stop-opacity="1" stop-color="rgb(75.318909%, 75.318909%, 75.318909%)" offset="0.945312"/><stop stop-opacity="1" stop-color="rgb(75.535583%, 75.535583%, 75.535583%)" offset="0.953125"/><stop stop-opacity="1" stop-color="rgb(75.926208%, 75.926208%, 75.926208%)" offset="0.960937"/><stop stop-opacity="1" stop-color="rgb(76.31073%, 76.31073%, 76.31073%)" offset="0.96875"/><stop stop-opacity="1" stop-color="rgb(76.501465%, 76.501465%, 76.501465%)" offset="0.976562"/><stop stop-opacity="1" stop-color="rgb(76.722717%, 76.722717%, 76.722717%)" offset="0.980469"/><stop stop-opacity="1" stop-color="rgb(76.94397%, 76.94397%, 76.94397%)" offset="0.984375"/><stop stop-opacity="1" stop-color="rgb(77.134705%, 77.134705%, 77.134705%)" offset="0.992187"/><stop stop-opacity="1" stop-color="rgb(77.461243%, 77.461243%, 77.461243%)" offset="1"/></linearGradient><clipPath id="dbd2d767e3"><path d="M 16.890625 90.363281 L 135 90.363281 L 135 199.484375 L 16.890625 199.484375 Z M 16.890625 90.363281 " clip-rule="nonzero"/></clipPath><clipPath id="ad21a087ee"><path d="M 109.890625 126.738281 C 109.890625 117.066406 102.425781 109.746094 91.777344 110.5625 C 69.1875 112.289062 66.269531 137.917969 80.976562 139.558594 C 96.355469 141.261719 101.859375 125.042969 102.164062 124.140625 L 102.175781 124.140625 C 102.214844 125.246094 103.039062 147.554688 80.214844 147.554688 C 79.023438 147.574219 77.847656 147.46875 76.683594 147.242188 C 75.511719 147.023438 74.375 146.6875 73.277344 146.242188 C 72.179688 145.789062 71.136719 145.234375 70.144531 144.582031 C 69.15625 143.921875 68.242188 143.171875 67.40625 142.332031 C 66.5625 141.488281 65.820312 140.574219 65.167969 139.585938 C 64.515625 138.589844 63.964844 137.546875 63.527344 136.449219 C 63.078125 135.34375 62.757812 134.214844 62.542969 133.042969 C 62.328125 131.878906 62.230469 130.707031 62.257812 129.515625 C 62.257812 117.105469 74.363281 104.765625 91.449219 104.101562 C 101.015625 103.734375 107.320312 105.984375 112.257812 110.910156 C 122.320312 120.941406 119.429688 139.769531 111.28125 149.0625 C 98.351562 163.8125 80.171875 167.558594 63.238281 159.992188 C 46.296875 152.417969 40.234375 130.492188 50.496094 112.148438 C 54.269531 105.398438 67.980469 90.363281 91.539062 90.363281 C 121.453125 90.363281 136.617188 111.507812 133.878906 136.34375 C 131.777344 155.378906 120.183594 169.164062 114.816406 174.972656 C 91.207031 200.5625 56.507812 205.664062 34.644531 192.355469 C 33.148438 191.460938 31.726562 190.464844 30.371094 189.371094 C 29.015625 188.273438 27.753906 187.085938 26.570312 185.808594 C 25.386719 184.527344 24.304688 183.171875 23.316406 181.738281 C 22.328125 180.304688 21.449219 178.808594 20.683594 177.253906 C 19.914062 175.691406 19.253906 174.085938 18.714844 172.433594 C 18.179688 170.78125 17.757812 169.09375 17.460938 167.378906 C 17.167969 165.671875 16.988281 163.945312 16.941406 162.207031 C 16.890625 160.464844 16.972656 158.734375 17.171875 157.007812 C 17.449219 159.617188 18.007812 162.167969 18.839844 164.660156 C 19.675781 167.15625 20.765625 169.523438 22.117188 171.78125 C 23.46875 174.03125 25.042969 176.117188 26.851562 178.027344 C 28.652344 179.945312 30.640625 181.640625 32.8125 183.125 C 50.6875 195.28125 80.570312 196.953125 102.160156 173.261719 C 80.453125 189.433594 55.085938 189.191406 37.769531 177.9375 C 21.871094 167.613281 17.503906 146.992188 25.289062 126.617188 C 21.382812 144.796875 27.65625 161.636719 41.441406 170.417969 C 62.921875 184.105469 94.226562 176.234375 113.949219 154.199219 C 117.269531 150.5 119.832031 146.332031 121.628906 141.703125 C 123.429688 137.070312 124.351562 132.273438 124.402344 127.308594 C 124.1875 111.898438 113.417969 98.058594 91.675781 98.058594 C 69.347656 98.058594 54.007812 115.265625 54.007812 129.589844 C 54.007812 145.492188 64.945312 154.558594 79.21875 154.558594 C 93.347656 154.578125 109.890625 145.691406 109.890625 126.738281 Z M 109.890625 126.738281 " clip-rule="nonzero"/></clipPath><linearGradient x1="-0.000308797" gradientTransform="matrix(117.267644, 0, 0, 109.109539, 16.928419, 90.366033)" y1="0.5" x2="1.009412" gradientUnits="userSpaceOnUse" y2="0.5" id="1ece7a6a9b"><stop stop-opacity="1" stop-color="rgb(65.098572%, 65.098572%, 65.098572%)" offset="0"/><stop stop-opacity="1" stop-color="rgb(65.46936%, 65.46936%, 65.46936%)" offset="0.00390625"/><stop stop-opacity="1" stop-color="rgb(65.841675%, 65.841675%, 65.841675%)" offset="0.0078125"/><stop stop-opacity="1" stop-color="rgb(66.227722%, 66.227722%, 66.227722%)" offset="0.0117187"/><stop stop-opacity="1" stop-color="rgb(66.61377%, 66.61377%, 66.61377%)" offset="0.015625"/><stop stop-opacity="1" stop-color="rgb(66.856384%, 66.856384%, 66.856384%)" offset="0.0195312"/><stop stop-opacity="1" stop-color="rgb(67.098999%, 67.098999%, 67.098999%)" offset="0.0234375"/><stop stop-opacity="1" stop-color="rgb(67.433167%, 67.433167%, 67.433167%)" offset="0.0273438"/><stop stop-opacity="1" stop-color="rgb(67.76886%, 67.76886%, 67.76886%)" offset="0.03125"/><stop stop-opacity="1" stop-color="rgb(68.15033%, 68.15033%, 68.15033%)" offset="0.0351562"/><stop stop-opacity="1" stop-color="rgb(68.531799%, 68.531799%, 68.531799%)" offset="0.0390625"/><stop stop-opacity="1" stop-color="rgb(68.917847%, 68.917847%, 68.917847%)" offset="0.0429687"/><stop stop-opacity="1" stop-color="rgb(69.30542%, 69.30542%, 69.30542%)" offset="0.046875"/><stop stop-opacity="1" stop-color="rgb(69.691467%, 69.691467%, 69.691467%)" offset="0.0507812"/><stop stop-opacity="1" stop-color="rgb(70.077515%, 70.077515%, 70.077515%)" offset="0.0546875"/><stop stop-opacity="1" stop-color="rgb(70.463562%, 70.463562%, 70.463562%)" offset="0.0585937"/><stop stop-opacity="1" stop-color="rgb(70.849609%, 70.849609%, 70.849609%)" offset="0.0625"/><stop stop-opacity="1" stop-color="rgb(71.286011%, 71.286011%, 71.286011%)" offset="0.0664062"/><stop stop-opacity="1" stop-color="rgb(71.722412%, 71.722412%, 71.722412%)" offset="0.0703125"/><stop stop-opacity="1" stop-color="rgb(71.908569%, 71.908569%, 71.908569%)" offset="0.078125"/><stop stop-opacity="1" stop-color="rgb(72.43042%, 72.43042%, 72.43042%)" offset="0.0820312"/><stop stop-opacity="1" stop-color="rgb(72.767639%, 72.767639%, 72.767639%)" offset="0.0859375"/><stop stop-opacity="1" stop-color="rgb(73.153687%, 73.153687%, 73.153687%)" offset="0.0898438"/><stop stop-opacity="1" stop-color="rgb(73.539734%, 73.539734%, 73.539734%)" offset="0.09375"/><stop stop-opacity="1" stop-color="rgb(73.81897%, 73.81897%, 73.81897%)" offset="0.0976562"/><stop stop-opacity="1" stop-color="rgb(74.099731%, 74.099731%, 74.099731%)" offset="0.101563"/><stop stop-opacity="1" stop-color="rgb(74.443054%, 74.443054%, 74.443054%)" offset="0.105469"/><stop stop-opacity="1" stop-color="rgb(74.786377%, 74.786377%, 74.786377%)" offset="0.109375"/><stop stop-opacity="1" stop-color="rgb(75.172424%, 75.172424%, 75.172424%)" offset="0.113281"/><stop stop-opacity="1" stop-color="rgb(75.558472%, 75.558472%, 75.558472%)" offset="0.117188"/><stop stop-opacity="1" stop-color="rgb(75.744629%, 75.744629%, 75.744629%)" offset="0.125"/><stop stop-opacity="1" stop-color="rgb(76.316833%, 76.316833%, 76.316833%)" offset="0.128906"/><stop stop-opacity="1" stop-color="rgb(76.702881%, 76.702881%, 76.702881%)" offset="0.132812"/><stop stop-opacity="1" stop-color="rgb(77.000427%, 77.000427%, 77.000427%)" offset="0.136719"/><stop stop-opacity="1" stop-color="rgb(77.2995%, 77.2995%, 77.2995%)" offset="0.140625"/><stop stop-opacity="1" stop-color="rgb(77.548218%, 77.548218%, 77.548218%)" offset="0.144531"/><stop stop-opacity="1" stop-color="rgb(77.798462%, 77.798462%, 77.798462%)" offset="0.148438"/><stop stop-opacity="1" stop-color="rgb(78.208923%, 78.208923%, 78.208923%)" offset="0.152344"/><stop stop-opacity="1" stop-color="rgb(78.620911%, 78.620911%, 78.620911%)" offset="0.15625"/><stop stop-opacity="1" stop-color="rgb(78.807068%, 78.807068%, 78.807068%)" offset="0.164062"/><stop stop-opacity="1" stop-color="rgb(79.380798%, 79.380798%, 79.380798%)" offset="0.167969"/><stop stop-opacity="1" stop-color="rgb(79.766846%, 79.766846%, 79.766846%)" offset="0.171875"/><stop stop-opacity="1" stop-color="rgb(80.082703%, 80.082703%, 80.082703%)" offset="0.175781"/><stop stop-opacity="1" stop-color="rgb(80.39856%, 80.39856%, 80.39856%)" offset="0.179688"/><stop stop-opacity="1" stop-color="rgb(80.654907%, 80.654907%, 80.654907%)" offset="0.183594"/><stop stop-opacity="1" stop-color="rgb(80.911255%, 80.911255%, 80.911255%)" offset="0.1875"/><stop stop-opacity="1" stop-color="rgb(81.347656%, 81.347656%, 81.347656%)" offset="0.191406"/><stop stop-opacity="1" stop-color="rgb(81.784058%, 81.784058%, 81.784058%)" offset="0.195312"/><stop stop-opacity="1" stop-color="rgb(81.970215%, 81.970215%, 81.970215%)" offset="0.203125"/><stop stop-opacity="1" stop-color="rgb(82.492065%, 82.492065%, 82.492065%)" offset="0.207031"/><stop stop-opacity="1" stop-color="rgb(82.829285%, 82.829285%, 82.829285%)" offset="0.210938"/><stop stop-opacity="1" stop-color="rgb(83.015442%, 83.015442%, 83.015442%)" offset="0.21875"/><stop stop-opacity="1" stop-color="rgb(83.5495%, 83.5495%, 83.5495%)" offset="0.222656"/><stop stop-opacity="1" stop-color="rgb(83.898926%, 83.898926%, 83.898926%)" offset="0.226562"/><stop stop-opacity="1" stop-color="rgb(84.098816%, 84.098816%, 84.098816%)" offset="0.230469"/><stop stop-opacity="1" stop-color="rgb(84.298706%, 84.298706%, 84.298706%)" offset="0.234375"/><stop stop-opacity="1" stop-color="rgb(84.498596%, 84.498596%, 84.498596%)" offset="0.238281"/><stop stop-opacity="1" stop-color="rgb(84.698486%, 84.698486%, 84.698486%)" offset="0.242187"/><stop stop-opacity="1" stop-color="rgb(84.898376%, 84.898376%, 84.898376%)" offset="0.246094"/><stop stop-opacity="1" stop-color="rgb(85.099792%, 85.099792%, 85.099792%)" offset="0.25"/><stop stop-opacity="1" stop-color="rgb(85.299683%, 85.299683%, 85.299683%)" offset="0.253906"/><stop stop-opacity="1" stop-color="rgb(85.499573%, 85.499573%, 85.499573%)" offset="0.257812"/><stop stop-opacity="1" stop-color="rgb(85.717773%, 85.717773%, 85.717773%)" offset="0.261719"/><stop stop-opacity="1" stop-color="rgb(85.9375%, 85.9375%, 85.9375%)" offset="0.265625"/><stop stop-opacity="1" stop-color="rgb(86.125183%, 86.125183%, 86.125183%)" offset="0.273437"/><stop stop-opacity="1" stop-color="rgb(86.547852%, 86.547852%, 86.547852%)" offset="0.277344"/><stop stop-opacity="1" stop-color="rgb(86.782837%, 86.782837%, 86.782837%)" offset="0.28125"/><stop stop-opacity="1" stop-color="rgb(86.968994%, 86.968994%, 86.968994%)" offset="0.289062"/><stop stop-opacity="1" stop-color="rgb(87.338257%, 87.338257%, 87.338257%)" offset="0.296875"/><stop stop-opacity="1" stop-color="rgb(87.660217%, 87.660217%, 87.660217%)" offset="0.304687"/><stop stop-opacity="1" stop-color="rgb(87.998962%, 87.998962%, 87.998962%)" offset="0.308594"/><stop stop-opacity="1" stop-color="rgb(88.198853%, 88.198853%, 88.198853%)" offset="0.3125"/><stop stop-opacity="1" stop-color="rgb(88.421631%, 88.421631%, 88.421631%)" offset="0.316406"/><stop stop-opacity="1" stop-color="rgb(88.645935%, 88.645935%, 88.645935%)" offset="0.320312"/><stop stop-opacity="1" stop-color="rgb(88.832092%, 88.832092%, 88.832092%)" offset="0.328125"/><stop stop-opacity="1" stop-color="rgb(89.404297%, 89.404297%, 89.404297%)" offset="0.332031"/><stop stop-opacity="1" stop-color="rgb(89.79187%, 89.79187%, 89.79187%)" offset="0.335938"/><stop stop-opacity="1" stop-color="rgb(89.794922%, 89.794922%, 89.794922%)" offset="0.34375"/><stop stop-opacity="1" stop-color="rgb(89.883423%, 89.883423%, 89.883423%)" offset="0.351562"/><stop stop-opacity="1" stop-color="rgb(90.083313%, 90.083313%, 90.083313%)" offset="0.359375"/><stop stop-opacity="1" stop-color="rgb(90.293884%, 90.293884%, 90.293884%)" offset="0.367187"/><stop stop-opacity="1" stop-color="rgb(90.493774%, 90.493774%, 90.493774%)" offset="0.375"/><stop stop-opacity="1" stop-color="rgb(90.681458%, 90.681458%, 90.681458%)" offset="0.382812"/><stop stop-opacity="1" stop-color="rgb(90.881348%, 90.881348%, 90.881348%)" offset="0.390625"/><stop stop-opacity="1" stop-color="rgb(91.07666%, 91.07666%, 91.07666%)" offset="0.398438"/><stop stop-opacity="1" stop-color="rgb(91.27655%, 91.27655%, 91.27655%)" offset="0.40625"/><stop stop-opacity="1" stop-color="rgb(91.477966%, 91.477966%, 91.477966%)" offset="0.414062"/><stop stop-opacity="1" stop-color="rgb(91.751099%, 91.751099%, 91.751099%)" offset="0.421875"/><stop stop-opacity="1" stop-color="rgb(91.835022%, 91.835022%, 91.835022%)" offset="0.4375"/><stop stop-opacity="1" stop-color="rgb(91.423035%, 91.423035%, 91.423035%)" offset="0.441406"/><stop stop-opacity="1" stop-color="rgb(91.120911%, 91.120911%, 91.120911%)" offset="0.445312"/><stop stop-opacity="1" stop-color="rgb(90.719604%, 90.719604%, 90.719604%)" offset="0.449219"/><stop stop-opacity="1" stop-color="rgb(90.318298%, 90.318298%, 90.318298%)" offset="0.453125"/><stop stop-opacity="1" stop-color="rgb(89.930725%, 89.930725%, 89.930725%)" offset="0.457031"/><stop stop-opacity="1" stop-color="rgb(89.544678%, 89.544678%, 89.544678%)" offset="0.460937"/><stop stop-opacity="1" stop-color="rgb(89.15863%, 89.15863%, 89.15863%)" offset="0.464844"/><stop stop-opacity="1" stop-color="rgb(88.772583%, 88.772583%, 88.772583%)" offset="0.46875"/><stop stop-opacity="1" stop-color="rgb(88.586426%, 88.586426%, 88.586426%)" offset="0.476562"/><stop stop-opacity="1" stop-color="rgb(88.012695%, 88.012695%, 88.012695%)" offset="0.480469"/><stop stop-opacity="1" stop-color="rgb(87.626648%, 87.626648%, 87.626648%)" offset="0.484375"/><stop stop-opacity="1" stop-color="rgb(87.240601%, 87.240601%, 87.240601%)" offset="0.488281"/><stop stop-opacity="1" stop-color="rgb(86.854553%, 86.854553%, 86.854553%)" offset="0.492187"/><stop stop-opacity="1" stop-color="rgb(86.468506%, 86.468506%, 86.468506%)" offset="0.496094"/><stop stop-opacity="1" stop-color="rgb(86.082458%, 86.082458%, 86.082458%)" offset="0.5"/><stop stop-opacity="1" stop-color="rgb(85.894775%, 85.894775%, 85.894775%)" offset="0.507813"/><stop stop-opacity="1" stop-color="rgb(85.322571%, 85.322571%, 85.322571%)" offset="0.511719"/><stop stop-opacity="1" stop-color="rgb(84.936523%, 84.936523%, 84.936523%)" offset="0.515625"/><stop stop-opacity="1" stop-color="rgb(84.550476%, 84.550476%, 84.550476%)" offset="0.519531"/><stop stop-opacity="1" stop-color="rgb(84.164429%, 84.164429%, 84.164429%)" offset="0.523438"/><stop stop-opacity="1" stop-color="rgb(83.831787%, 83.831787%, 83.831787%)" offset="0.527344"/><stop stop-opacity="1" stop-color="rgb(83.499146%, 83.499146%, 83.499146%)" offset="0.53125"/><stop stop-opacity="1" stop-color="rgb(83.209229%, 83.209229%, 83.209229%)" offset="0.535156"/><stop stop-opacity="1" stop-color="rgb(82.919312%, 82.919312%, 82.919312%)" offset="0.539062"/><stop stop-opacity="1" stop-color="rgb(82.582092%, 82.582092%, 82.582092%)" offset="0.542969"/><stop stop-opacity="1" stop-color="rgb(82.246399%, 82.246399%, 82.246399%)" offset="0.546875"/><stop stop-opacity="1" stop-color="rgb(81.922913%, 81.922913%, 81.922913%)" offset="0.550781"/><stop stop-opacity="1" stop-color="rgb(81.599426%, 81.599426%, 81.599426%)" offset="0.554688"/><stop stop-opacity="1" stop-color="rgb(81.349182%, 81.349182%, 81.349182%)" offset="0.558594"/><stop stop-opacity="1" stop-color="rgb(81.100464%, 81.100464%, 81.100464%)" offset="0.5625"/><stop stop-opacity="1" stop-color="rgb(80.749512%, 80.749512%, 80.749512%)" offset="0.566406"/><stop stop-opacity="1" stop-color="rgb(80.39856%, 80.39856%, 80.39856%)" offset="0.570312"/><stop stop-opacity="1" stop-color="rgb(80.126953%, 80.126953%, 80.126953%)" offset="0.574219"/><stop stop-opacity="1" stop-color="rgb(79.855347%, 79.855347%, 79.855347%)" offset="0.578125"/><stop stop-opacity="1" stop-color="rgb(79.527283%, 79.527283%, 79.527283%)" offset="0.582031"/><stop stop-opacity="1" stop-color="rgb(79.199219%, 79.199219%, 79.199219%)" offset="0.585938"/><stop stop-opacity="1" stop-color="rgb(78.955078%, 78.955078%, 78.955078%)" offset="0.589844"/><stop stop-opacity="1" stop-color="rgb(78.710938%, 78.710938%, 78.710938%)" offset="0.59375"/><stop stop-opacity="1" stop-color="rgb(78.355408%, 78.355408%, 78.355408%)" offset="0.597656"/><stop stop-opacity="1" stop-color="rgb(77.999878%, 77.999878%, 77.999878%)" offset="0.601562"/><stop stop-opacity="1" stop-color="rgb(77.781677%, 77.781677%, 77.781677%)" offset="0.605469"/><stop stop-opacity="1" stop-color="rgb(77.565002%, 77.565002%, 77.565002%)" offset="0.609375"/><stop stop-opacity="1" stop-color="rgb(77.378845%, 77.378845%, 77.378845%)" offset="0.617187"/><stop stop-opacity="1" stop-color="rgb(76.806641%, 76.806641%, 76.806641%)" offset="0.621094"/><stop stop-opacity="1" stop-color="rgb(76.420593%, 76.420593%, 76.420593%)" offset="0.625"/><stop stop-opacity="1" stop-color="rgb(76.23291%, 76.23291%, 76.23291%)" offset="0.632812"/><stop stop-opacity="1" stop-color="rgb(75.660706%, 75.660706%, 75.660706%)" offset="0.636719"/><stop stop-opacity="1" stop-color="rgb(75.274658%, 75.274658%, 75.274658%)" offset="0.640625"/><stop stop-opacity="1" stop-color="rgb(75.086975%, 75.086975%, 75.086975%)" offset="0.648437"/><stop stop-opacity="1" stop-color="rgb(74.464417%, 74.464417%, 74.464417%)" offset="0.652344"/><stop stop-opacity="1" stop-color="rgb(74.029541%, 74.029541%, 74.029541%)" offset="0.65625"/><stop stop-opacity="1" stop-color="rgb(73.843384%, 73.843384%, 73.843384%)" offset="0.664062"/><stop stop-opacity="1" stop-color="rgb(73.269653%, 73.269653%, 73.269653%)" offset="0.667969"/><stop stop-opacity="1" stop-color="rgb(72.883606%, 72.883606%, 72.883606%)" offset="0.671875"/><stop stop-opacity="1" stop-color="rgb(72.691345%, 72.691345%, 72.691345%)" offset="0.679687"/><stop stop-opacity="1" stop-color="rgb(72.167969%, 72.167969%, 72.167969%)" offset="0.683594"/><stop stop-opacity="1" stop-color="rgb(71.838379%, 71.838379%, 71.838379%)" offset="0.6875"/><stop stop-opacity="1" stop-color="rgb(71.618652%, 71.618652%, 71.618652%)" offset="0.691406"/><stop stop-opacity="1" stop-color="rgb(71.398926%, 71.398926%, 71.398926%)" offset="0.695312"/><stop stop-opacity="1" stop-color="rgb(70.996094%, 70.996094%, 70.996094%)" offset="0.699219"/><stop stop-opacity="1" stop-color="rgb(70.593262%, 70.593262%, 70.593262%)" offset="0.703125"/><stop stop-opacity="1" stop-color="rgb(70.396423%, 70.396423%, 70.396423%)" offset="0.707031"/><stop stop-opacity="1" stop-color="rgb(70.199585%, 70.199585%, 70.199585%)" offset="0.710938"/><stop stop-opacity="1" stop-color="rgb(69.824219%, 69.824219%, 69.824219%)" offset="0.714844"/><stop stop-opacity="1" stop-color="rgb(69.448853%, 69.448853%, 69.448853%)" offset="0.71875"/><stop stop-opacity="1" stop-color="rgb(69.262695%, 69.262695%, 69.262695%)" offset="0.726562"/><stop stop-opacity="1" stop-color="rgb(68.888855%, 68.888855%, 68.888855%)" offset="0.734375"/><stop stop-opacity="1" stop-color="rgb(68.466187%, 68.466187%, 68.466187%)" offset="0.738281"/><stop stop-opacity="1" stop-color="rgb(68.231201%, 68.231201%, 68.231201%)" offset="0.742188"/><stop stop-opacity="1" stop-color="rgb(68.043518%, 68.043518%, 68.043518%)" offset="0.75"/><stop stop-opacity="1" stop-color="rgb(67.710876%, 67.710876%, 67.710876%)" offset="0.757812"/><stop stop-opacity="1" stop-color="rgb(67.388916%, 67.388916%, 67.388916%)" offset="0.765625"/><stop stop-opacity="1" stop-color="rgb(67.025757%, 67.025757%, 67.025757%)" offset="0.773437"/><stop stop-opacity="1" stop-color="rgb(66.615295%, 66.615295%, 66.615295%)" offset="0.777344"/><stop stop-opacity="1" stop-color="rgb(66.390991%, 66.390991%, 66.390991%)" offset="0.78125"/><stop stop-opacity="1" stop-color="rgb(66.192627%, 66.192627%, 66.192627%)" offset="0.785156"/><stop stop-opacity="1" stop-color="rgb(65.994263%, 65.994263%, 65.994263%)" offset="0.789062"/><stop stop-opacity="1" stop-color="rgb(65.808105%, 65.808105%, 65.808105%)" offset="0.796875"/><stop stop-opacity="1" stop-color="rgb(65.435791%, 65.435791%, 65.435791%)" offset="0.804687"/><stop stop-opacity="1" stop-color="rgb(65.17334%, 65.17334%, 65.17334%)" offset="0.8125"/><stop stop-opacity="1" stop-color="rgb(65.098572%, 65.098572%, 65.098572%)" offset="0.875"/><stop stop-opacity="1" stop-color="rgb(65.098572%, 65.098572%, 65.098572%)" offset="1"/></linearGradient></defs><g clip-path="url(#8e402c2f29)"><g clip-path="url(#7c6c598713)"><path fill="#2510b5" d="M -0.488281 53.714844 L 175.257812 53.714844 L 175.257812 229.457031 L -0.488281 229.457031 Z M -0.488281 53.714844 " fill-opacity="1" fill-rule="nonzero"/></g></g><g clip-path="url(#a450a37309)"><g clip-path="url(#fa35b3a9c6)"><path fill="url(#4696956519)" d="M 148.082031 83.492188 L 148.082031 192.234375 L 221.640625 192.234375 L 221.640625 83.492188 Z M 148.082031 83.492188 " fill-rule="nonzero"/></g></g><g clip-path="url(#dbd2d767e3)"><g clip-path="url(#ad21a087ee)"><path fill="url(#1ece7a6a9b)" d="M 16.890625 90.363281 L 16.890625 199.484375 L 135.300781 199.484375 L 135.300781 90.363281 Z M 16.890625 90.363281 " fill-rule="nonzero"/></g></g><path fill="#a6a6a6" d="M 225.171875 190.867188 L 255.398438 106.496094 L 273.367188 106.496094 L 303.53125 190.867188 L 286.554688 190.867188 L 279.667969 171.320312 L 249.324219 171.320312 L 242.265625 190.867188 Z M 253.121094 156.445312 L 275.582031 156.445312 L 264.441406 122.949219 Z M 253.121094 156.445312 " fill-opacity="1" fill-rule="nonzero"/><path fill="#a6a6a6" d="M 330.617188 191.917969 C 326.183594 191.917969 322.660156 191.390625 320.054688 190.34375 C 317.449219 189.292969 315.519531 187.902344 314.277344 186.167969 C 313.03125 184.441406 312.238281 182.511719 311.882812 180.394531 C 311.535156 178.273438 311.359375 176.125 311.359375 173.945312 L 311.359375 104.160156 L 328.050781 104.160156 L 328.050781 171.847656 C 328.050781 174.0625 328.523438 175.863281 329.476562 177.242188 C 330.429688 178.625 332.230469 179.46875 334.878906 179.78125 L 337.734375 179.957031 L 337.734375 190.457031 C 336.566406 190.847656 335.378906 191.191406 334.175781 191.476562 C 332.96875 191.769531 331.785156 191.917969 330.617188 191.917969 Z M 330.617188 191.917969 " fill-opacity="1" fill-rule="nonzero"/><path fill="#a6a6a6" d="M 399.292969 106.496094 L 416.332031 106.496094 L 416.332031 190.867188 L 400.984375 190.867188 L 360.898438 132.8125 L 360.898438 190.867188 L 343.921875 190.867188 L 343.921875 106.496094 L 360.78125 106.496094 L 399.292969 162.332031 Z M 399.292969 106.496094 " fill-opacity="1" fill-rule="nonzero"/></svg>